<svg xmlns="http://www.w3.org/2000/svg" version="1.1" xmlns:xlink="http://www.w3.org/1999/xlink" xmlns:svgjs="http://svgjs.dev/svgjs" width="1000" height="1000" viewBox="0 0 1000 1000"><rect width="1000" height="1000" fill="#ffffff"></rect><g transform="matrix(0.7,0,0,0.7,149.5757575757575,358.1018444129837)"><svg viewBox="0 0 396 161" data-background-color="#ffffff" preserveAspectRatio="xMidYMid meet" height="406" width="1000" xmlns="http://www.w3.org/2000/svg" xmlns:xlink="http://www.w3.org/1999/xlink"><defs></defs><g id="tight-bounds" transform="matrix(1,0,0,1,0.24000000000003752,-0.11434535710900207)"><svg viewBox="0 0 395.5199999999999 161.228690714218" height="161.228690714218" width="395.5199999999999"><g><svg viewBox="0 0 395.5199999999999 161.228690714218" height="161.228690714218" width="395.5199999999999"><g><svg viewBox="0 0 395.5199999999999 161.228690714218" height="161.228690714218" width="395.5199999999999"><g><svg viewBox="0 0 395.5199999999999 161.228690714218" height="161.228690714218" width="395.5199999999999"><g><rect width="395.5199999999999" height="117.68089265402843" fill="none" stroke-width="9.018103199999999" stroke="#202046" data-fill-palette-color="none" data-stroke-palette-color="tertiary"></rect><rect width="395.5199999999999" height="43.54779806018957" y="117.68089265402843" fill="#202046" data-fill-palette-color="tertiary"></rect></g><g><svg viewBox="0 0 395.5199999999999 117.68089265402843" height="117.68089265402843" width="395.5199999999999"><g transform="matrix(1,0,0,1,23.607599999999998,23.607599999999998)"><svg width="348.30479999999994" viewBox="3.6500000953674316 -33.70000076293945 168.79000854492188 34.150001525878906" height="70.46569265402843" data-palette-color="#202046"><path d="M22.6-4.55L22.6 0 3.65 0 3.65-33.7 8.8-33.7 8.8-4.55 22.6-4.55ZM35.65-14.25L35.65-14.25 35.1-12.55 45.9-12.55 45.35-14.25Q43.45-20.15 42.25-24.03 41.05-27.9 40.8-28.85L40.8-28.85 40.55-29.8Q40-27.45 35.65-14.25ZM33.7-8.25L31 0 25.55 0 37.2-33.7 43.95-33.7 55.45 0 49.95 0 47.3-8.25 33.7-8.25ZM73.59 0L73.59 0 60.65 0 60.65-33.7 71.7-33.7Q77-33.7 80.05-31.23 83.09-28.75 83.09-24.7L83.09-24.7Q83.09-21.9 81.52-19.8 79.95-17.7 77.5-17.1L77.5-17.1Q80.25-16.6 82.12-14.55 84-12.5 84-9.05L84-9.05Q84-5.05 81.27-2.53 78.55 0 73.59 0ZM71.3-29.45L71.3-29.45 65.8-29.45 65.8-19.1 70.45-19.1Q74.2-19.1 76.02-20.63 77.84-22.15 77.84-24.6L77.84-24.6Q77.84-26.75 76.22-28.1 74.59-29.45 71.3-29.45ZM71.9-14.9L71.9-14.9 65.8-14.9 65.8-4.25 72.4-4.25Q78.75-4.25 78.75-9.5L78.75-9.5Q78.75-12.05 77.02-13.48 75.3-14.9 71.9-14.9ZM100.89-15.45L100.89-11.25 88.69-11.25 88.69-15.45 100.89-15.45ZM120.24-29.75L110.39-11.9 120.24-11.9 120.24-29.75ZM125.14-7.65L125.14 0 120.24 0 120.24-7.65 105.44-7.65 105.44-11.9 117.19-32.75 125.14-32.75 125.14-11.9 129.74-11.9 129.74-7.65 125.14-7.65ZM144.24-32.7L144.24 0 139.39 0 139.39-27.35 131.64-22.6 131.64-27.85 139.79-32.7 144.24-32.7ZM172.44-8.7L172.44-8.7Q172.44-4.55 169.24-2.05 166.03 0.45 161.14 0.45L161.14 0.45Q156.34 0.45 153.24-1.98 150.14-4.4 150.14-8.45L150.14-8.45Q150.14-14.25 155.69-16.4L155.69-16.4Q153.34-17.4 152.01-19.3 150.69-21.2 150.69-23.75L150.69-23.75Q150.69-28.15 153.74-30.65 156.78-33.15 161.14-33.15L161.14-33.15Q165.64-33.15 168.69-30.73 171.74-28.3 171.74-23.7L171.74-23.7Q171.74-18.75 166.84-16.45L166.84-16.45Q172.44-14.55 172.44-8.7ZM155.14-8.65L155.14-8.65Q155.14-6.55 156.69-5.15 158.24-3.75 161.19-3.75L161.19-3.75Q164.24-3.75 165.86-5.25 167.49-6.75 167.49-8.95 167.49-11.15 165.89-12.65 164.28-14.15 161.19-14.15L161.19-14.15Q158.19-14.1 156.66-12.53 155.14-10.95 155.14-8.65ZM155.69-23.8L155.69-23.8Q155.69-21.25 157.26-19.93 158.84-18.6 161.34-18.6L161.34-18.6Q163.69-18.6 165.21-19.98 166.74-21.35 166.74-23.85L166.74-23.85Q166.74-26.05 165.36-27.5 163.99-28.95 161.14-28.95L161.14-28.95Q158.59-28.95 157.14-27.45 155.69-25.95 155.69-23.8Z" opacity="1" transform="matrix(1,0,0,1,0,0)" fill="#202046" class="undefined-text-0" data-fill-palette-color="primary" id="text-0"></path></svg></g></svg></g></svg></g></svg></g></svg></g></svg><rect width="395.5199999999999" height="161.228690714218" fill="none" stroke="none" visibility="hidden"></rect></g></svg></g></svg>